<svg width="512" height="512" viewBox="0 0 512 512" fill="none" xmlns="http://www.w3.org/2000/svg">
<path d="M501.167 271.993C501.167 271.993 414.229 203.022 396.262 194.474C378.296 185.926 356.703 181.434 356.703 181.434C356.703 181.434 365.251 203.602 366.122 213.602C366.993 223.601 368.587 265.183 368.44 281.993C368.297 298.803 362.352 328.215 364.527 343.864C366.702 359.512 374.379 351.255 374.379 351.255L398.866 341.256L450.161 307.783L501.167 271.993Z" fill="#FFFF00" stroke="black" stroke-width="7.39227" stroke-miterlimit="10"/>
<path d="M154.776 267.831C154.776 267.831 67.8382 198.86 49.8719 190.312C31.9056 181.764 10.3125 177.271 10.3125 177.271C10.3125 177.271 18.8602 199.44 19.7312 209.44C20.6022 219.439 22.1966 261.021 22.0489 277.831C21.9062 294.641 15.9617 324.053 18.1368 339.702C20.3118 355.35 27.9885 347.093 27.9885 347.093L52.475 337.093L103.771 303.621L154.776 267.831Z" fill="#FFFF00" stroke="black" stroke-width="7.39227" stroke-miterlimit="10"/>
<path d="M361.746 262.689C361.746 262.689 230.524 158.586 203.405 145.684C176.286 132.781 143.699 126 143.699 126C143.699 126 156.602 159.462 157.916 174.555C159.23 189.647 161.636 252.414 161.415 277.781C161.198 303.149 152.227 347.55 155.509 371.166C158.792 394.786 170.381 382.321 170.381 382.321L207.342 367.229L284.763 316.711L361.746 262.689Z" fill="#FFFF00" stroke="black" stroke-width="7.39227" stroke-miterlimit="10"/>
<path d="M322.895 209.033C322.678 208.816 322.457 208.816 322.457 208.816C322.457 209.033 322.678 209.033 322.895 209.033Z" fill="#202020"/>
<path d="M346.25 292.462C346.343 292.427 346.432 292.393 346.516 292.354C346.422 292.388 346.334 292.422 346.25 292.462Z" fill="#202020"/>
</svg>
