<svg width="2231" height="1198" viewBox="0 0 2231 1198" fill="none" xmlns="http://www.w3.org/2000/svg">
<path d="M2183.29 674.596C2183.29 674.596 1804.65 374.209 1726.4 336.982C1648.16 299.755 1554.11 280.188 1554.11 280.188C1554.11 280.188 1591.34 376.738 1595.13 420.287C1598.93 463.836 1605.87 644.934 1605.23 718.145C1604.61 791.356 1578.72 919.454 1588.19 987.607C1597.66 1055.76 1631.1 1019.8 1631.1 1019.8L1737.74 976.248L1961.15 830.469L2183.29 674.596Z" fill="#FFFF00" stroke="black" stroke-width="32.195" stroke-miterlimit="10"/>
<path d="M674.679 656.467C674.679 656.467 296.044 356.08 217.796 318.853C139.549 281.626 45.5066 262.059 45.5066 262.059C45.5066 262.059 82.7335 358.609 86.527 402.158C90.3204 445.707 97.2643 626.806 96.6213 700.016C95.9998 773.227 70.1102 901.325 79.5831 969.478C89.0559 1037.63 122.489 1001.67 122.489 1001.67L229.134 958.119L452.538 812.34L674.679 656.467Z" fill="#FFFF00" stroke="black" stroke-width="32.195" stroke-miterlimit="10"/>
<path d="M1576.08 634.072C1576.08 634.072 1004.58 180.683 886.473 124.489C768.363 68.2952 626.442 38.7622 626.442 38.7622C626.442 38.7622 682.636 184.498 688.358 250.229C694.08 315.96 704.56 589.322 703.596 699.803C702.653 810.284 663.583 1003.66 677.878 1106.51C692.173 1209.39 742.645 1155.1 742.645 1155.1L903.618 1089.37L1240.8 869.35L1576.08 634.072Z" fill="#FFFF00" stroke="black" stroke-width="32.195" stroke-miterlimit="10"/>
<path d="M1406.87 400.388C1405.93 399.445 1404.96 399.445 1404.96 399.445C1404.96 400.388 1405.93 400.388 1406.87 400.388Z" fill="#202020"/>
<path d="M1508.59 763.742C1508.99 763.592 1509.38 763.442 1509.74 763.271C1509.34 763.421 1508.95 763.571 1508.59 763.742Z" fill="#202020"/>
</svg>
