<svg width="2231" height="345" viewBox="0 0 2231 345" fill="none" xmlns="http://www.w3.org/2000/svg">
<g clip-path="url(#clip0_149_1614)">
<path d="M438.421 114.141C414.637 115.754 391.658 123.816 373.114 139.135C361.827 148.407 340.461 170.579 345.701 187.914C352.555 209.28 385.208 193.961 396.093 186.302C416.652 171.789 430.359 149.617 442.856 128.251C440.034 127.444 437.615 126.638 434.793 125.832C431.971 132.282 429.552 138.732 426.731 145.585C425.924 147.198 425.521 151.229 427.537 152.035C493.247 182.673 567.423 171.789 629.505 137.523C677.075 111.319 739.963 65.3623 729.482 3.28024C729.079 0.861455 726.257 0.458325 724.644 1.66772C690.781 23.8399 663.771 54.881 646.84 91.969C637.971 111.722 631.924 132.282 629.505 153.648C627.893 167.758 624.668 187.511 639.18 195.977C653.693 204.442 677.881 203.233 693.603 201.62C712.953 200.008 732.304 195.17 750.041 187.108C786.323 171.386 815.752 143.973 834.699 109.304C838.73 101.644 831.474 97.6128 827.442 105.272C796.401 162.92 729.885 196.783 664.981 188.317C652.081 186.705 642.002 186.302 638.374 170.176C636.762 161.711 639.18 150.826 640.39 142.36C642.809 127.041 647.243 112.529 653.29 98.0159C668.206 63.3467 693.2 33.9182 724.644 13.3585C723.032 12.9554 721.419 12.1491 719.806 11.746C729.885 72.2156 651.274 117.769 604.914 137.926C550.492 161.307 488.813 164.936 434.793 139.538C435.196 141.554 435.599 143.973 435.599 145.988C438.421 139.538 440.84 133.088 443.662 126.235C446.887 118.576 438.825 117.769 435.599 123.816C427.94 136.716 420.28 150.02 410.202 161.307C402.543 169.773 373.517 195.574 359.811 183.883C344.089 170.579 380.371 145.182 388.433 140.345C402.14 132.685 417.459 128.251 433.181 127.041C438.825 126.638 444.065 113.738 438.421 114.141Z" fill="black"/>
<path d="M839.938 81.8861C790.353 164.931 745.202 250.395 704.486 337.874C707.711 337.471 710.936 337.471 713.758 337.068C715.773 323.361 721.014 313.686 731.092 304.817C735.527 300.786 735.527 289.095 728.27 295.142C714.564 306.833 706.098 321.749 703.679 339.89C702.47 348.759 710.936 343.518 712.951 339.083C753.265 252.814 798.012 168.156 846.791 86.3206C851.628 78.6611 844.372 74.2267 839.938 81.8861Z" fill="black"/>
<path d="M808.899 152.029C815.349 138.726 825.428 128.245 838.731 121.391C844.778 118.166 852.034 116.151 858.887 114.941C862.112 114.538 865.337 114.538 868.966 114.135C876.625 112.523 877.431 115.748 871.384 124.213C863.322 149.611 827.846 165.736 804.465 175.411C800.03 177.023 794.79 190.327 802.046 187.908C836.715 177.83 871.788 169.364 907.666 163.317C938.707 158.076 972.57 157.673 1002.4 145.982C1049.97 127.035 1078.59 80.6752 1103.18 38.7496C1104.39 36.3308 1106.01 30.687 1101.98 30.2839C1060.45 23.8338 1030.22 60.1155 1014.9 94.3816C995.549 137.92 992.727 188.714 961.686 226.205C964.104 227.415 966.523 229.027 968.942 230.237C982.648 189.117 1015.71 159.689 1057.63 149.207C1056.42 147.595 1055.21 145.982 1054 143.967C1051.99 157.27 1049.97 170.976 1047.96 184.28C1047.55 185.892 1047.96 189.52 1050.37 189.52C1082.62 188.311 1114.07 183.877 1145.11 175.008C1159.22 170.976 1172.93 166.139 1186.23 160.495C1201.15 154.045 1220.5 139.532 1236.62 138.726C1242.26 138.323 1247.51 125.423 1241.46 125.826C1230.98 126.229 1223.72 131.067 1214.85 135.501C1197.52 144.37 1179.78 152.029 1161.24 158.076C1126.97 169.364 1091.49 175.411 1055.62 176.217C1056.42 177.83 1057.23 179.845 1058.03 181.458C1060.05 168.155 1062.07 154.448 1064.08 141.145C1064.48 138.726 1063.68 135.098 1060.45 135.904C1013.29 147.595 975.795 182.667 960.073 228.624C958.058 234.671 962.895 237.896 967.33 232.655C990.308 204.839 999.58 170.17 1009.66 136.307C1021.75 95.591 1043.52 33.9121 1097.54 42.3778C1097.14 39.5559 1096.73 36.734 1096.33 33.9121C1068.52 81.4815 1037.47 129.051 979.423 139.935C920.566 151.223 862.919 157.673 804.868 174.605C804.062 178.636 803.255 183.07 802.449 187.102C826.234 177.427 848.003 164.929 866.547 147.595C879.044 135.904 893.557 121.795 887.913 103.654C887.51 102.444 886.703 101.638 885.494 101.235C848.809 96.8004 816.156 117.36 800.837 150.417C795.999 159.689 805.674 158.479 808.899 152.029Z" fill="black"/>
<path d="M1255.56 122.204C1228.96 125.429 1167.68 150.826 1184.21 189.527C1201.95 230.243 1260 148.407 1267.66 133.491C1269.27 130.266 1269.67 122.607 1264.03 125.429C1251.94 131.879 1246.29 145.182 1249.11 158.486C1253.95 181.867 1278.14 185.898 1298.7 184.286C1327.72 181.867 1359.17 177.836 1387.39 169.773C1407.14 164.129 1423.67 154.454 1433.75 135.91C1434.96 133.895 1436.57 127.444 1432.54 127.444C1415.61 126.638 1395.05 132.685 1394.64 153.245C1394.64 179.045 1437.78 170.579 1453.9 170.983C1453.9 167.758 1453.9 164.129 1453.9 160.904C1441 174.611 1427.7 187.914 1414.8 201.62C1412.38 204.039 1410.37 212.505 1416.01 211.699C1477.29 200.814 1535.34 179.448 1589.36 148.407C1588.95 144.779 1588.55 141.151 1587.74 137.523C1576.05 149.214 1558.72 169.37 1565.57 187.914C1570.01 200.008 1586.94 206.055 1598.63 206.861C1604.27 207.264 1609.51 194.364 1603.47 193.961C1598.22 193.558 1592.58 191.945 1587.74 189.527C1585.73 188.317 1582.5 187.511 1580.89 185.495C1571.62 175.417 1581.7 155.664 1590.56 146.795C1593.39 143.973 1596.61 131.879 1588.95 135.91C1535.74 166.548 1478.49 187.511 1418.03 198.395C1418.43 201.62 1418.83 205.249 1419.23 208.474C1432.13 194.767 1445.44 181.464 1458.34 167.758C1459.95 166.145 1463.18 157.679 1458.34 157.679C1446.65 157.276 1434.96 157.276 1423.27 156.873C1420.85 156.873 1413.59 157.679 1411.57 156.47C1388.6 141.554 1424.88 139.942 1426.89 139.942C1426.49 137.12 1426.09 134.298 1425.68 131.476C1410.37 159.695 1370.46 160.904 1342.24 165.339C1325.71 167.758 1307.16 172.595 1290.23 171.386C1282.57 170.983 1274.11 169.773 1268.06 164.936C1261.21 159.695 1251.13 143.167 1263.63 136.313C1262.42 133.491 1261.21 131.073 1260 128.251C1254.35 139.538 1213.23 203.233 1195.09 181.867C1173.32 156.067 1237.42 135.507 1252.74 133.895C1258.39 134.298 1262.82 121.398 1255.56 122.204Z" fill="black"/>
<path d="M1598.63 207.663C1655.06 210.081 1717.15 197.181 1765.52 166.543C1775.2 160.496 1796.56 141.146 1786.48 127.44C1774.39 111.314 1744.96 129.858 1734.48 138.324C1723.6 147.193 1700.21 166.946 1708.68 183.878C1717.95 202.422 1754.64 197.181 1769.96 195.972C1828.41 192.344 1883.24 170.978 1930 136.308C1932.01 134.696 1935.64 128.649 1932.82 126.23C1919.52 112.121 1894.12 113.33 1886.86 133.487C1883.24 143.565 1886.86 154.449 1894.93 161.303C1907.83 172.59 1926.37 169.365 1942.09 166.14C1942.5 162.109 1942.9 158.077 1943.3 154.046C1924.76 166.946 1907.02 180.653 1890.09 195.569C1888.48 197.181 1883.64 205.244 1888.07 206.453C1911.86 214.516 1940.08 205.244 1964.26 201.212C1994.9 196.375 2025.54 190.731 2056.18 184.281C2114.63 171.381 2172.28 154.046 2225.9 127.44C2230.73 125.021 2233.15 112.121 2225.9 115.749C2175.1 141.146 2121.08 157.674 2065.45 170.171C2039.65 175.815 2013.85 180.653 1988.05 185.087C1973.94 187.506 1959.83 189.925 1945.72 191.94C1929.6 194.359 1911.45 199.6 1895.33 194.359C1894.52 197.987 1893.72 201.616 1893.31 205.244C1909.44 191.134 1926.37 178.234 1944.11 165.737C1946.93 163.721 1952.98 152.031 1945.32 153.643C1933.22 156.062 1909.44 161.303 1900.97 147.193C1896.14 138.727 1898.96 129.455 1909.04 129.455C1915.08 129.455 1921.13 132.68 1925.16 137.115C1925.97 133.89 1927.18 130.261 1927.98 127.036C1896.94 150.418 1861.47 167.35 1823.57 176.622C1804.63 181.056 1785.27 183.878 1765.92 184.281C1757.06 184.684 1748.19 184.684 1739.32 183.878C1728.03 182.668 1723.19 183.072 1723.19 171.381C1723.19 159.69 1731.26 153.643 1740.12 146.79C1745.77 142.355 1751.81 138.727 1758.67 136.712C1772.37 131.874 1774.79 138.324 1765.52 155.659C1760.68 160.899 1748.19 164.528 1741.74 167.35C1732.06 171.784 1722.39 175.815 1712.31 179.443C1677.24 191.94 1640.95 197.181 1603.87 195.569C1597.82 194.359 1592.18 207.259 1598.63 207.663Z" fill="black"/>
<path d="M1625.64 85.5125C1623.63 86.7218 1621.61 88.7375 1620.81 91.1563C1620 92.7688 1619.6 95.5907 1620.81 97.2032C1622.42 99.2189 1625.24 99.2189 1627.26 98.0095C1630.88 95.9938 1633.71 90.7531 1632.09 86.3187C1631.29 83.4968 1628.47 82.6905 1625.64 82.2874C1622.82 81.8843 1620.4 82.2874 1617.98 83.4968C1614.36 85.5125 1611.53 89.9469 1611.94 93.9782C1611.94 96.397 1613.15 98.8158 1615.57 99.622C1619.19 101.235 1622.82 98.0095 1624.43 94.7845C1625.64 92.7688 1627.26 88.3344 1624.43 86.7218C1621.61 85.1093 1618.39 88.7375 1617.18 90.7531C1617.58 90.35 1617.58 89.9469 1617.98 89.9469C1618.79 89.1406 1619.6 88.3344 1620.4 87.9312C1621.21 87.5281 1622.02 87.5281 1622.42 87.5281C1622.02 87.125 1622.02 87.125 1622.42 87.5281C1622.42 87.5281 1622.02 87.125 1622.02 86.7218C1622.42 87.5281 1622.42 88.3344 1622.42 89.1406C1622.02 90.35 1621.61 91.5594 1621.21 92.3657C1620.81 93.5751 1620 94.3813 1618.79 94.7845C1619.19 94.7845 1619.6 94.7845 1619.19 94.7845C1620 94.7845 1620.4 94.7845 1621.21 94.7845C1622.02 94.7845 1622.42 95.1876 1623.22 95.1876C1622.82 95.1876 1623.22 95.1876 1623.63 95.5907C1623.22 94.7845 1623.22 93.9782 1623.22 92.7688C1623.63 91.5594 1624.03 90.35 1624.43 89.5438C1624.43 89.5438 1624.43 89.5438 1624.43 89.9469C1625.64 88.7375 1626.85 87.5281 1628.06 86.3187C1628.47 86.3187 1629.27 85.9156 1629.67 85.9156C1629.27 85.9156 1629.27 85.9156 1629.67 85.9156C1630.08 85.9156 1630.48 86.7218 1630.48 86.3187C1630.88 87.125 1630.88 87.9312 1631.29 88.7375C1630.48 90.7531 1629.67 93.1719 1628.87 95.1876C1628.06 95.9938 1627.26 96.8001 1626.45 97.2032C1626.45 97.2032 1626.45 97.2032 1626.85 97.2032C1629.67 95.5907 1632.09 91.9625 1631.69 88.7375C1630.88 85.5124 1628.47 83.8999 1625.64 85.5125Z" fill="black"/>
<path d="M7.47261 198.795C120.349 164.932 248.545 243.542 353.762 173.801C360.615 169.366 356.584 158.885 348.924 164.125C297.727 197.988 235.241 193.151 177.191 185.894C119.543 178.638 62.2984 170.172 5.86009 187.104C-1.39626 189.523 -1.39626 201.213 7.47261 198.795Z" fill="black"/>
</g>
<defs>
<clipPath id="clip0_149_1614">
<rect width="2229.72" height="343.87" fill="white" transform="translate(0.620361 0.455078)"/>
</clipPath>
</defs>
</svg>
