<svg width="2231" height="1813" viewBox="0 0 2231 1813" fill="none" xmlns="http://www.w3.org/2000/svg">
<g clip-path="url(#clip0_149_1613)">
<path d="M438.421 1582.14C414.637 1583.75 391.658 1591.82 373.114 1607.14C361.827 1616.41 340.461 1638.58 345.701 1655.91C352.555 1677.28 385.208 1661.96 396.093 1654.3C416.652 1639.79 430.359 1617.62 442.856 1596.25C440.034 1595.44 437.615 1594.64 434.793 1593.83C431.971 1600.28 429.552 1606.73 426.731 1613.59C425.924 1615.2 425.521 1619.23 427.537 1620.04C493.247 1650.67 567.423 1639.79 629.505 1605.52C677.075 1579.32 739.963 1533.36 729.482 1471.28C729.079 1468.86 726.257 1468.46 724.644 1469.67C690.781 1491.84 663.771 1522.88 646.84 1559.97C637.971 1579.72 631.924 1600.28 629.505 1621.65C627.893 1635.76 624.668 1655.51 639.18 1663.98C653.693 1672.44 677.881 1671.23 693.603 1669.62C712.953 1668.01 732.304 1663.17 750.041 1655.11C786.323 1639.39 815.752 1611.97 834.699 1577.3C838.73 1569.64 831.474 1565.61 827.442 1573.27C796.401 1630.92 729.885 1664.78 664.981 1656.32C652.081 1654.7 642.002 1654.3 638.374 1638.18C636.762 1629.71 639.18 1618.83 640.39 1610.36C642.809 1595.04 647.243 1580.53 653.29 1566.02C668.206 1531.35 693.2 1501.92 724.644 1481.36C723.032 1480.96 721.419 1480.15 719.806 1479.75C729.885 1540.22 651.274 1585.77 604.914 1605.93C550.492 1629.31 488.813 1632.94 434.793 1607.54C435.196 1609.55 435.599 1611.97 435.599 1613.99C438.421 1607.54 440.84 1601.09 443.662 1594.24C446.887 1586.58 438.825 1585.77 435.599 1591.82C427.94 1604.72 420.28 1618.02 410.202 1629.31C402.543 1637.77 373.517 1663.57 359.811 1651.88C344.089 1638.58 380.371 1613.18 388.433 1608.34C402.14 1600.69 417.459 1596.25 433.181 1595.04C438.825 1594.64 444.065 1581.74 438.421 1582.14Z" fill="black"/>
<path d="M839.938 1549.89C790.353 1632.93 745.202 1718.39 704.486 1805.87C707.711 1805.47 710.936 1805.47 713.758 1805.07C715.773 1791.36 721.014 1781.69 731.092 1772.82C735.527 1768.79 735.527 1757.1 728.27 1763.14C714.564 1774.83 706.098 1789.75 703.679 1807.89C702.47 1816.76 710.936 1811.52 712.951 1807.08C753.265 1720.81 798.012 1636.16 846.791 1554.32C851.628 1546.66 844.372 1542.23 839.938 1549.89Z" fill="black"/>
<path d="M808.899 1620.03C815.349 1606.73 825.428 1596.24 838.731 1589.39C844.778 1586.17 852.034 1584.15 858.887 1582.94C862.112 1582.54 865.337 1582.54 868.966 1582.14C876.625 1580.52 877.431 1583.75 871.384 1592.21C863.322 1617.61 827.846 1633.74 804.465 1643.41C800.03 1645.02 794.79 1658.33 802.046 1655.91C836.715 1645.83 871.788 1637.36 907.666 1631.32C938.707 1626.08 972.57 1625.67 1002.4 1613.98C1049.97 1595.04 1078.59 1548.68 1103.18 1506.75C1104.39 1504.33 1106.01 1498.69 1101.98 1498.28C1060.45 1491.83 1030.22 1528.12 1014.9 1562.38C995.549 1605.92 992.727 1656.71 961.686 1694.21C964.104 1695.41 966.523 1697.03 968.942 1698.24C982.648 1657.12 1015.71 1627.69 1057.63 1617.21C1056.42 1615.59 1055.21 1613.98 1054 1611.97C1051.99 1625.27 1049.97 1638.98 1047.96 1652.28C1047.55 1653.89 1047.96 1657.52 1050.37 1657.52C1082.62 1656.31 1114.07 1651.88 1145.11 1643.01C1159.22 1638.98 1172.93 1634.14 1186.23 1628.5C1201.15 1622.04 1220.5 1607.53 1236.62 1606.73C1242.26 1606.32 1247.51 1593.42 1241.46 1593.83C1230.98 1594.23 1223.72 1599.07 1214.85 1603.5C1197.52 1612.37 1179.78 1620.03 1161.24 1626.08C1126.97 1637.36 1091.49 1643.41 1055.62 1644.22C1056.42 1645.83 1057.23 1647.85 1058.03 1649.46C1060.05 1636.15 1062.07 1622.45 1064.08 1609.14C1064.48 1606.73 1063.68 1603.1 1060.45 1603.9C1013.29 1615.59 975.795 1650.67 960.073 1696.62C958.058 1702.67 962.895 1705.9 967.33 1700.66C990.308 1672.84 999.58 1638.17 1009.66 1604.31C1021.75 1563.59 1043.52 1501.91 1097.54 1510.38C1097.14 1507.56 1096.73 1504.73 1096.33 1501.91C1068.52 1549.48 1037.47 1597.05 979.423 1607.94C920.566 1619.22 862.919 1625.67 804.868 1642.6C804.062 1646.64 803.255 1651.07 802.449 1655.1C826.234 1645.43 848.003 1632.93 866.547 1615.59C879.044 1603.9 893.557 1589.79 887.913 1571.65C887.51 1570.44 886.703 1569.64 885.494 1569.23C848.809 1564.8 816.156 1585.36 800.837 1618.42C795.999 1627.69 805.674 1626.48 808.899 1620.03Z" fill="black"/>
<path d="M1255.56 1590.2C1228.96 1593.43 1167.68 1618.83 1184.21 1657.53C1201.95 1698.24 1260 1616.41 1267.66 1601.49C1269.27 1598.27 1269.67 1590.61 1264.03 1593.43C1251.94 1599.88 1246.29 1613.18 1249.11 1626.49C1253.95 1649.87 1278.14 1653.9 1298.7 1652.29C1327.72 1649.87 1359.17 1645.84 1387.39 1637.77C1407.14 1632.13 1423.67 1622.45 1433.75 1603.91C1434.96 1601.89 1436.57 1595.44 1432.54 1595.44C1415.61 1594.64 1395.05 1600.69 1394.64 1621.24C1394.64 1647.05 1437.78 1638.58 1453.9 1638.98C1453.9 1635.76 1453.9 1632.13 1453.9 1628.9C1441 1642.61 1427.7 1655.91 1414.8 1669.62C1412.38 1672.04 1410.37 1680.51 1416.01 1679.7C1477.29 1668.81 1535.34 1647.45 1589.36 1616.41C1588.95 1612.78 1588.55 1609.15 1587.74 1605.52C1576.05 1617.21 1558.72 1637.37 1565.57 1655.91C1570.01 1668.01 1586.94 1674.05 1598.63 1674.86C1604.27 1675.26 1609.51 1662.36 1603.47 1661.96C1598.22 1661.56 1592.58 1659.95 1587.74 1657.53C1585.73 1656.32 1582.5 1655.51 1580.89 1653.5C1571.62 1643.42 1581.7 1623.66 1590.56 1614.79C1593.39 1611.97 1596.61 1599.88 1588.95 1603.91C1535.74 1634.55 1478.49 1655.51 1418.03 1666.4C1418.43 1669.62 1418.83 1673.25 1419.23 1676.47C1432.13 1662.77 1445.44 1649.46 1458.34 1635.76C1459.95 1634.15 1463.18 1625.68 1458.34 1625.68C1446.65 1625.28 1434.96 1625.28 1423.27 1624.87C1420.85 1624.87 1413.59 1625.68 1411.57 1624.47C1388.6 1609.55 1424.88 1607.94 1426.89 1607.94C1426.49 1605.12 1426.09 1602.3 1425.68 1599.48C1410.37 1627.69 1370.46 1628.9 1342.24 1633.34C1325.71 1635.76 1307.16 1640.6 1290.23 1639.39C1282.57 1638.98 1274.11 1637.77 1268.06 1632.94C1261.21 1627.69 1251.13 1611.17 1263.63 1604.31C1262.42 1601.49 1261.21 1599.07 1260 1596.25C1254.35 1607.54 1213.23 1671.23 1195.09 1649.87C1173.32 1624.07 1237.42 1603.51 1252.74 1601.89C1258.39 1602.3 1262.82 1589.4 1255.56 1590.2Z" fill="black"/>
<path d="M1598.63 1675.66C1655.06 1678.08 1717.15 1665.18 1765.52 1634.54C1775.2 1628.5 1796.56 1609.15 1786.48 1595.44C1774.39 1579.31 1744.96 1597.86 1734.48 1606.32C1723.6 1615.19 1700.21 1634.95 1708.68 1651.88C1717.95 1670.42 1754.64 1665.18 1769.96 1663.97C1828.41 1660.34 1883.24 1638.98 1930 1604.31C1932.01 1602.7 1935.64 1596.65 1932.82 1594.23C1919.52 1580.12 1894.12 1581.33 1886.86 1601.49C1883.24 1611.56 1886.86 1622.45 1894.93 1629.3C1907.83 1640.59 1926.37 1637.37 1942.09 1634.14C1942.5 1630.11 1942.9 1626.08 1943.3 1622.05C1924.76 1634.95 1907.02 1648.65 1890.09 1663.57C1888.48 1665.18 1883.64 1673.24 1888.07 1674.45C1911.86 1682.52 1940.08 1673.24 1964.26 1669.21C1994.9 1664.37 2025.54 1658.73 2056.18 1652.28C2114.63 1639.38 2172.28 1622.05 2225.9 1595.44C2230.73 1593.02 2233.15 1580.12 2225.9 1583.75C2175.1 1609.15 2121.08 1625.67 2065.45 1638.17C2039.65 1643.82 2013.85 1648.65 1988.05 1653.09C1973.94 1655.51 1959.83 1657.92 1945.72 1659.94C1929.6 1662.36 1911.45 1667.6 1895.33 1662.36C1894.52 1665.99 1893.72 1669.62 1893.31 1673.24C1909.44 1659.13 1926.37 1646.23 1944.11 1633.74C1946.93 1631.72 1952.98 1620.03 1945.32 1621.64C1933.22 1624.06 1909.44 1629.3 1900.97 1615.19C1896.14 1606.73 1898.96 1597.46 1909.04 1597.46C1915.08 1597.46 1921.13 1600.68 1925.16 1605.11C1925.97 1601.89 1927.18 1598.26 1927.98 1595.04C1896.94 1618.42 1861.47 1635.35 1823.57 1644.62C1804.63 1649.06 1785.27 1651.88 1765.92 1652.28C1757.06 1652.68 1748.19 1652.68 1739.32 1651.88C1728.03 1650.67 1723.19 1651.07 1723.19 1639.38C1723.19 1627.69 1731.26 1621.64 1740.12 1614.79C1745.77 1610.36 1751.81 1606.73 1758.67 1604.71C1772.37 1599.87 1774.79 1606.32 1765.52 1623.66C1760.68 1628.9 1748.19 1632.53 1741.74 1635.35C1732.06 1639.78 1722.39 1643.82 1712.31 1647.44C1677.24 1659.94 1640.95 1665.18 1603.87 1663.57C1597.82 1662.36 1592.18 1675.26 1598.63 1675.66Z" fill="black"/>
<path d="M1625.64 1553.51C1623.63 1554.72 1621.61 1556.74 1620.81 1559.16C1620 1560.77 1619.6 1563.59 1620.81 1565.2C1622.42 1567.22 1625.24 1567.22 1627.26 1566.01C1630.88 1563.99 1633.71 1558.75 1632.09 1554.32C1631.29 1551.5 1628.47 1550.69 1625.64 1550.29C1622.82 1549.88 1620.4 1550.29 1617.98 1551.5C1614.36 1553.51 1611.53 1557.95 1611.94 1561.98C1611.94 1564.4 1613.15 1566.82 1615.57 1567.62C1619.19 1569.23 1622.82 1566.01 1624.43 1562.78C1625.64 1560.77 1627.26 1556.33 1624.43 1554.72C1621.61 1553.11 1618.39 1556.74 1617.18 1558.75C1617.58 1558.35 1617.58 1557.95 1617.98 1557.95C1618.79 1557.14 1619.6 1556.33 1620.4 1555.93C1621.21 1555.53 1622.02 1555.53 1622.42 1555.53C1622.02 1555.12 1622.02 1555.12 1622.42 1555.53C1622.42 1555.53 1622.02 1555.12 1622.02 1554.72C1622.42 1555.53 1622.42 1556.33 1622.42 1557.14C1622.02 1558.35 1621.61 1559.56 1621.21 1560.37C1620.81 1561.58 1620 1562.38 1618.79 1562.78C1619.19 1562.78 1619.6 1562.78 1619.19 1562.78C1620 1562.78 1620.4 1562.78 1621.21 1562.78C1622.02 1562.78 1622.42 1563.19 1623.22 1563.19C1622.82 1563.19 1623.22 1563.19 1623.63 1563.59C1623.22 1562.78 1623.22 1561.98 1623.22 1560.77C1623.63 1559.56 1624.03 1558.35 1624.43 1557.54C1624.43 1557.54 1624.43 1557.54 1624.43 1557.95C1625.64 1556.74 1626.85 1555.53 1628.06 1554.32C1628.47 1554.32 1629.27 1553.92 1629.67 1553.92C1629.27 1553.92 1629.27 1553.92 1629.67 1553.92C1630.08 1553.92 1630.48 1554.72 1630.48 1554.32C1630.88 1555.12 1630.88 1555.93 1631.29 1556.74C1630.48 1558.75 1629.67 1561.17 1628.87 1563.19C1628.06 1563.99 1627.26 1564.8 1626.45 1565.2C1626.45 1565.2 1626.45 1565.2 1626.85 1565.2C1629.67 1563.59 1632.09 1559.96 1631.69 1556.74C1630.88 1553.51 1628.47 1551.9 1625.64 1553.51Z" fill="black"/>
<path d="M7.47261 1666.79C120.349 1632.93 248.545 1711.54 353.762 1641.8C360.615 1637.37 356.584 1626.88 348.924 1632.13C297.727 1665.99 235.241 1661.15 177.191 1653.89C119.543 1646.64 62.2984 1638.17 5.86009 1655.1C-1.39626 1657.52 -1.39626 1669.21 7.47261 1666.79Z" fill="black"/>
</g>
<path d="M2183.29 674.596C2183.29 674.596 1804.65 374.209 1726.4 336.982C1648.16 299.755 1554.11 280.188 1554.11 280.188C1554.11 280.188 1591.34 376.738 1595.13 420.287C1598.93 463.836 1605.87 644.934 1605.23 718.145C1604.61 791.356 1578.72 919.454 1588.19 987.607C1597.66 1055.76 1631.1 1019.8 1631.1 1019.8L1737.74 976.248L1961.15 830.469L2183.29 674.596Z" fill="#FFFF00" stroke="black" stroke-width="32.195" stroke-miterlimit="10"/>
<path d="M674.679 656.467C674.679 656.467 296.044 356.08 217.796 318.853C139.549 281.626 45.5066 262.059 45.5066 262.059C45.5066 262.059 82.7335 358.609 86.527 402.158C90.3204 445.707 97.2643 626.806 96.6213 700.016C95.9998 773.227 70.1102 901.325 79.5831 969.478C89.0559 1037.63 122.489 1001.67 122.489 1001.67L229.134 958.119L452.538 812.34L674.679 656.467Z" fill="#FFFF00" stroke="black" stroke-width="32.195" stroke-miterlimit="10"/>
<path d="M1576.08 634.072C1576.08 634.072 1004.58 180.683 886.473 124.489C768.363 68.2952 626.442 38.7622 626.442 38.7622C626.442 38.7622 682.636 184.498 688.358 250.229C694.08 315.96 704.56 589.322 703.596 699.803C702.653 810.284 663.583 1003.66 677.878 1106.51C692.173 1209.39 742.645 1155.1 742.645 1155.1L903.618 1089.37L1240.8 869.35L1576.08 634.072Z" fill="#FFFF00" stroke="black" stroke-width="32.195" stroke-miterlimit="10"/>
<path d="M1406.87 400.388C1405.93 399.445 1404.96 399.445 1404.96 399.445C1404.96 400.388 1405.93 400.388 1406.87 400.388Z" fill="#202020"/>
<path d="M1508.59 763.742C1508.99 763.592 1509.38 763.442 1509.74 763.271C1509.34 763.421 1508.95 763.571 1508.59 763.742Z" fill="#202020"/>
<defs>
<clipPath id="clip0_149_1613">
<rect width="2229.72" height="343.87" fill="white" transform="translate(0.620361 1468.46)"/>
</clipPath>
</defs>
</svg>
